<svg aria-hidden="true" style="width:0;height:0;position:absolute;overflow:hidden" xmlns="http://www.w3.org/2000/svg"><defs><symbol id="icon-home" viewBox="0 0 32 32"><path fill="#d41872" style="fill:var(--color1,#d41872)" d="M31.625 16c0 8.629-6.996 15.625-15.625 15.625S.375 24.629.375 16 7.371.375 16 .375 31.625 7.371 31.625 16z"/><path fill="#d41872" style="fill:var(--color2,#d41872)" d="M31.075 20.113c-.012-.012-.025-.031-.038-.044-1.9-1.894-3.794-3.794-5.694-5.694-.05-.05-.106-.1-.169-.144l-8.762-6.419c-.225-.169-.469-.188-.725 0-2.112 1.55-4.231 3.1-6.344 4.65-.813.594-1.619 1.188-2.431 1.781a.566.566 0 0 0-.206.231c-.088.2-.044.4.131.575.594.6 1.194 1.194 1.794 1.788.075.075.106.15.106.262 0 2.238 0 4.469-.006 6.706 0 .219.069.381.219.531 2.35 2.344 4.694 4.694 7.044 7.037.081.081.15.194.25.256 7.1-.119 13.05-4.962 14.831-11.519z"/><path fill="#fff" style="fill:var(--color3,#fff)" d="m25.175 14.244-8.887-6.506a.488.488 0 0 0-.575 0l-8.887 6.506a.487.487 0 1 0 .575.787l8.6-6.3 8.6 6.294a.49.49 0 0 0 .682-.106.482.482 0 0 0-.106-.675z"/><path fill="#fff" style="fill:var(--color3,#fff)" d="M22.819 15.144a.489.489 0 0 0-.488.488v7.756h-3.894v-4.231c0-1.344-1.094-2.438-2.438-2.438s-2.438 1.094-2.438 2.438v4.231h-3.9v-7.756a.489.489 0 0 0-.976 0v8.244c0 .269.219.488.488.488h4.869c.256 0 .469-.2.488-.45V19.157a1.464 1.464 0 0 1 2.926 0V23.914a.49.49 0 0 0 .488.45h4.869a.489.489 0 0 0 .488-.488v-8.244a.475.475 0 0 0-.481-.488zM14.125 12.313h1.381v1.381h-1.381v-1.381zM16.188 12.313h1.381v1.381h-1.381v-1.381z"/><path fill="#fff" style="fill:var(--color3,#fff)" d="M14.125 14.256h1.381v1.381h-1.381v-1.381z"/><path d="M16.188 14.256h1.381v1.381h-1.381v-1.381z"/></symbol><symbol id="icon-backbutton" viewBox="0 0 32 32"><path d="M18.5 9c-.391 0-.743.153-1.011.398l-.003-.004-6 5.5a1.504 1.504 0 0 0 0 2.212l6 5.5.003-.004c.268.245.62.398 1.011.398a1.5 1.5 0 0 0 1.5-1.5c0-.437-.19-.828-.489-1.102l.003-.004L14.72 16l4.794-4.395-.003-.004c.299-.273.489-.663.489-1.101A1.5 1.5 0 0 0 18.5 9zM16 0C7.164 0 0 7.164 0 16s7.164 16 16 16 16-7.164 16-16S24.836 0 16 0zm0 29C8.832 29 3 23.168 3 16S8.832 3 16 3s13 5.832 13 13-5.832 13-13 13z"/></symbol><symbol id="icon-yes" viewBox="0 0 25 32"><path fill="#41ad49" style="fill:var(--color1,#41ad49)" d="M22.707 16c0-5.713-4.63-10.343-10.343-10.343S2.021 10.287 2.021 16s4.63 10.343 10.343 10.343S22.707 21.713 22.707 16zm-2.436-4.028L9.839 22.404l-5.382-5.382 2.376-2.376 3.01 3.01L17.9 9.599l2.372 2.372z"/></symbol></defs></svg>